HIERARCHY
ROOT Hips
{
	OFFSET -0.001795 -0.223333 0.028219
	CHANNELS 6 Xposition Yposition Zposition Zrotation Yrotation Xrotation 
	JOINT LeftUpLeg
	{
		OFFSET 0.069520 -0.091406 -0.006815
		CHANNELS 3 Zrotation Yrotation Xrotation
		JOINT LeftLeg
		{
			OFFSET 0.034277 -0.375199 -0.004496
			CHANNELS 3 Zrotation Yrotation Xrotation
			JOINT LeftFoot
			{
				OFFSET -0.013596 -0.397961 -0.043693
				CHANNELS 3 Zrotation Yrotation Xrotation
				JOINT LeftToe
				{
					OFFSET 0.026358 -0.055791 0.119288
					CHANNELS 3 Zrotation Yrotation Xrotation
					End Site
					{
						OFFSET 0.000000 0.000000 0.000000
					}
				}
			}
		}
	}
	JOINT RightUpLeg
	{
		OFFSET -0.067670 -0.090522 -0.004320
		CHANNELS 3 Zrotation Yrotation Xrotation
		JOINT RightLeg
		{
			OFFSET -0.038290 -0.382569 -0.008850
			CHANNELS 3 Zrotation Yrotation Xrotation
			JOINT RightFoot
			{
				OFFSET 0.015774 -0.398415 -0.042312
				CHANNELS 3 Zrotation Yrotation Xrotation
				JOINT RightToe
				{
					OFFSET -0.025372 -0.048144 0.123348
					CHANNELS 3 Zrotation Yrotation Xrotation
					End Site
					{
						OFFSET 0.000000 0.000000 0.000000
					}
				}
			}
		}
	}
	JOINT Spine
	{
		OFFSET -0.002533 0.108963 -0.026696
		CHANNELS 3 Zrotation Yrotation Xrotation
		JOINT Spine1
		{
			OFFSET 0.005487 0.135180 0.001092
			CHANNELS 3 Zrotation Yrotation Xrotation
			JOINT Spine2
			{
				OFFSET 0.001457 0.052922 0.025425
				CHANNELS 3 Zrotation Yrotation Xrotation
				JOINT Neck
				{
					OFFSET -0.002778 0.213870 -0.042857
					CHANNELS 3 Zrotation Yrotation Xrotation
					JOINT Head
					{
						OFFSET 0.005152 0.064970 0.051349
						CHANNELS 3 Zrotation Yrotation Xrotation
						End Site
						{
							OFFSET 0.000000 0.000000 0.000000
						}
					}
				}
				JOINT LeftShoulder
				{
					OFFSET 0.078845 0.121749 -0.034090
					CHANNELS 3 Zrotation Yrotation Xrotation
					JOINT LeftArm
					{
						OFFSET 0.090977 0.030469 -0.008868
						CHANNELS 3 Zrotation Yrotation Xrotation
						JOINT LeftForeArm
						{
							OFFSET 0.259612 -0.012772 -0.027456
							CHANNELS 3 Zrotation Yrotation Xrotation
							JOINT LeftHand
							{
								OFFSET 0.249234 0.008986 -0.001171
								CHANNELS 3 Zrotation Yrotation Xrotation
								End Site
								{
									OFFSET 0.000000 0.000000 0.000000
								}
							}
						}
					}
				}
				JOINT RightShoulder
				{
					OFFSET -0.081759 0.118833 -0.038615
					CHANNELS 3 Zrotation Yrotation Xrotation
					JOINT RightArm
					{
						OFFSET -0.096012 0.032551 -0.009143
						CHANNELS 3 Zrotation Yrotation Xrotation
						JOINT RightForeArm
						{
							OFFSET -0.253742 -0.013329 -0.021401
							CHANNELS 3 Zrotation Yrotation Xrotation
							JOINT RightHand
							{
								OFFSET -0.255298 0.007772 -0.005559
								CHANNELS 3 Zrotation Yrotation Xrotation
								End Site
								{
									OFFSET 0.000000 0.000000 0.000000
								}
							}
						}
					}
				}
			}
		}
	}
}
MOTION
Frames: 7
Frame Time: 0.050000
0.000000 0.749823 0.000000 -5.653642 -12.027197 18.559498 20.043324 12.679579 -67.494949 -24.741603 22.200975 69.020690 13.828471 28.565436 -8.056980 0.000000 0.000000 0.000000 -14.865903 2.245426 -45.718441 18.853574 -7.984934 66.525442 -8.772412 -23.744031 -14.546312 0.000000 0.000000 0.000000 -0.012242 2.237817 68.482626 -5.433997 1.428752 -31.331534 -3.571735 7.869174 23.262544 16.328942 -4.643949 -34.368923 0.000000 0.000000 0.000000 -23.449021 -42.818875 23.887242 -7.275358 -28.224555 -1.462462 15.171202 -14.667936 -1.375267 0.000000 0.000000 0.000000 30.617755 29.868380 21.978182 4.584130 35.556541 -2.661009 -16.776104 26.909512 -2.783604 0.000000 0.000000 0.000000 
0.005666 0.725141 0.033562 -6.262562 -12.290345 19.672781 20.939928 14.684966 -71.178683 -25.015532 22.849348 71.290399 15.995940 30.557292 2.136971 0.000000 0.000000 0.000000 -16.255294 1.953019 -46.104159 20.330693 -10.044056 72.173853 -8.780611 -24.161953 -16.871023 0.000000 0.000000 0.000000 -1.665287 3.888073 70.625270 -2.028245 0.918072 -30.850339 -4.166301 11.248728 23.617490 20.984296 -3.919126 -43.695579 0.000000 0.000000 0.000000 -21.958281 -47.049077 25.034343 -1.003038 -26.573031 -2.232186 12.994239 -13.204714 -0.986462 0.000000 0.000000 0.000000 30.210680 27.400543 21.881296 -0.890823 35.740100 -4.035668 -19.529732 27.657552 -3.535851 0.000000 0.000000 0.000000 
0.014065 0.704180 0.069914 -6.908567 -13.974832 19.964195 20.192019 15.838423 -73.247842 -23.701392 23.241490 75.563908 20.404770 34.603001 12.765417 0.000000 0.000000 0.000000 -17.998115 1.709470 -42.878547 21.199567 -10.103125 73.179243 -8.512957 -23.796553 -20.322297 0.000000 0.000000 0.000000 -3.261613 6.477694 73.806744 -0.816148 0.753725 -34.083477 -3.045580 11.469024 27.017194 17.913315 -3.605288 -40.360166 0.000000 0.000000 0.000000 -16.650061 -47.671236 23.152301 1.947820 -28.405440 -2.947929 12.154091 -7.581279 -0.524649 0.000000 0.000000 0.000000 27.471569 27.414186 20.997801 -4.984645 36.902493 -5.070403 -20.654702 23.319176 -3.190536 0.000000 0.000000 0.000000 
0.024854 0.686897 0.107275 -9.858486 -14.882168 24.624692 18.933010 16.303200 -74.833324 -21.313907 22.259977 78.677642 22.062095 40.397760 2.142716 0.000000 0.000000 0.000000 -19.370704 1.925145 -45.592323 22.839904 -11.308022 72.257431 -9.078715 -25.959944 -15.829748 0.000000 0.000000 0.000000 -3.925284 7.903331 73.691856 -1.320506 0.830004 -34.107773 -2.163028 9.948044 27.696532 16.292949 -2.409810 -43.318769 0.000000 0.000000 0.000000 -11.559304 -48.991223 22.620959 4.613862 -25.407506 -3.024863 11.343175 -5.695037 -0.366994 0.000000 0.000000 0.000000 20.955757 30.292885 20.119918 -2.079328 37.161595 -4.371606 -24.362967 22.276138 -3.533749 0.000000 0.000000 0.000000 
0.036460 0.675211 0.146409 -11.938506 -15.701367 28.824160 19.092027 17.532656 -75.039288 -20.088360 22.319901 81.179500 18.094711 37.704843 -8.772099 0.000000 0.000000 0.000000 -19.239956 2.447939 -45.737913 22.874093 -10.636396 71.167492 -9.564862 -27.354580 -11.896712 0.000000 0.000000 0.000000 -5.826828 10.338720 73.078069 -0.083744 0.712593 -35.194510 -2.005071 9.744851 28.870130 16.618290 -2.696100 -42.347563 0.000000 0.000000 0.000000 -6.803014 -48.626029 20.788199 5.601862 -24.033916 -3.040408 11.536667 -3.378462 -0.232031 0.000000 0.000000 0.000000 20.643300 31.332129 20.849678 -4.304808 37.274840 -5.067094 -27.066025 19.742335 -3.416443 0.000000 0.000000 0.000000 
0.047597 0.669421 0.188037 -14.605474 -16.381402 33.584669 19.498040 18.706864 -74.293571 -18.971963 22.313861 82.636470 14.768381 34.059827 -19.635800 0.000000 0.000000 0.000000 -19.657885 2.920744 -46.420515 22.768430 -9.867075 69.395661 -7.958745 -21.996422 -6.822808 0.000000 0.000000 0.000000 -7.453486 12.221319 70.876161 0.787209 0.641599 -34.671141 -1.278527 9.583173 29.500902 17.067805 -2.567143 -43.799714 0.000000 0.000000 0.000000 -5.767861 -47.783724 20.429209 6.143100 -21.593142 -2.817508 12.600240 -4.541115 -0.371893 0.000000 0.000000 0.000000 19.424009 32.759214 21.382010 -5.540048 36.995952 -5.435251 -28.993081 20.334034 -3.786293 0.000000 0.000000 0.000000 
0.058074 0.665273 0.232482 -16.478662 -15.805665 38.015195 18.973334 18.222808 -73.681789 -17.941852 22.346571 84.066653 13.015129 31.704756 -27.995575 0.000000 0.000000 0.000000 -18.841066 3.376811 -46.860070 21.906859 -9.250592 70.030165 -7.200468 -19.865104 -0.515013 0.000000 0.000000 0.000000 -8.589067 13.134385 69.164225 2.468833 0.512943 -34.400306 -1.661463 10.473083 28.844503 16.761704 -2.163473 -43.983304 0.000000 0.000000 0.000000 -1.402424 -44.920142 17.686705 4.474442 -24.603059 -3.244803 12.958828 -3.539638 -0.309173 0.000000 0.000000 0.000000 17.621653 32.378073 21.085599 -5.140386 38.124863 -5.595571 -30.370054 19.729680 -3.699204 0.000000 0.000000 0.000000 
